<?xml version="1.0" standalone="no"?>
<!DOCTYPE svg PUBLIC "-//W3C//DTD SVG 20010904//EN"
 "http://www.w3.org/TR/2001/REC-SVG-20010904/DTD/svg10.dtd">
<svg version="1.0" xmlns="http://www.w3.org/2000/svg"
 width="384.000000pt" height="136.000000pt" viewBox="0 0 384.000000 136.000000"
 preserveAspectRatio="xMidYMid meet">

<g transform="translate(0.000000,136.000000) scale(0.100000,-0.100000)"
fill="#000000" stroke="none">
<path d="M3018 1263 c-21 -5 -24 -23 -4 -23 7 0 28 3 47 7 28 5 30 7 14 14
-22 8 -32 9 -57 2z"/>
<path d="M3033 1225 c-206 -45 -383 -227 -428 -440 -27 -130 -11 -247 51 -375
137 -278 492 -392 768 -248 86 45 204 165 244 248 113 232 72 481 -108 660
-143 143 -329 198 -527 155z m194 -88 c18 3 41 2 50 -1 15 -6 15 -8 3 -16 -11
-7 -8 -10 14 -10 35 0 99 -30 141 -66 29 -25 29 -26 5 -20 -14 4 -38 9 -55 12
l-30 6 30 -19 c61 -40 92 -86 110 -169 24 -110 18 -220 -18 -298 -31 -67 -89
-143 -121 -157 -16 -7 -13 -8 14 -4 19 4 60 8 90 11 l55 4 -69 -20 c-38 -11
-103 -37 -145 -56 l-76 -35 48 -26 c26 -15 47 -32 47 -38 0 -6 -11 -22 -24
-34 l-25 -23 -57 41 -57 41 -46 -33 c-25 -18 -51 -36 -57 -40 -14 -8 -64 29
-64 47 0 7 22 24 49 38 50 25 50 25 25 37 -16 7 -23 7 -19 1 7 -11 -18 -8 -85
12 -53 16 -112 51 -99 59 7 4 -7 10 -30 14 -23 4 -40 12 -39 17 2 6 -9 24 -26
42 -16 17 -43 60 -60 96 -29 61 -31 73 -31 176 0 107 1 112 38 186 67 135 182
216 327 228 41 3 77 2 79 -3 2 -4 10 1 18 13 15 21 15 21 37 2 15 -14 30 -18
53 -15z"/>
<path d="M3450 906 c0 -2 8 -10 18 -17 15 -13 16 -12 3 4 -13 16 -21 21 -21
13z"/>
<path d="M80 1000 c0 -5 5 -10 10 -10 6 0 10 5 10 10 0 6 -4 10 -10 10 -5 0
-10 -4 -10 -10z"/>
<path d="M120 1000 c0 -5 5 -10 10 -10 6 0 10 5 10 10 0 6 -4 10 -10 10 -5 0
-10 -4 -10 -10z"/>
<path d="M447 1003 c-11 -10 -8 -141 3 -148 6 -4 10 23 10 74 0 81 -1 87 -13
74z"/>
<path d="M640 1000 c0 -5 5 -10 10 -10 6 0 10 5 10 10 0 6 -4 10 -10 10 -5 0
-10 -4 -10 -10z"/>
<path d="M738 1000 c-4 -8 -9 -40 -10 -70 -3 -54 -4 -55 -35 -58 -33 -3 -33
-3 -33 42 0 25 -4 46 -10 46 -6 0 -10 -26 -10 -59 0 -65 -15 -87 -52 -78 -21
6 -22 5 -5 -7 22 -17 54 -10 68 15 6 12 21 19 37 19 52 0 63 18 60 95 -2 39
-6 63 -10 55z"/>
<path d="M780 929 c0 -51 4 -78 10 -74 6 3 10 40 10 81 0 43 -4 74 -10 74 -6
0 -10 -34 -10 -81z"/>
<path d="M890 1000 c0 -5 5 -10 10 -10 6 0 10 5 10 10 0 6 -4 10 -10 10 -5 0
-10 -4 -10 -10z"/>
<path d="M1300 1000 c0 -5 5 -10 10 -10 6 0 10 5 10 10 0 6 -4 10 -10 10 -5 0
-10 -4 -10 -10z"/>
<path d="M1380 1000 c0 -5 5 -10 10 -10 6 0 10 5 10 10 0 6 -4 10 -10 10 -5 0
-10 -4 -10 -10z"/>
<path d="M1502 955 c-3 -74 -11 -88 -48 -83 -26 3 -29 7 -32 46 -2 23 -7 42
-12 42 -5 0 -10 -19 -12 -42 -3 -42 -4 -43 -38 -43 -34 0 -35 1 -38 43 -2 23
-7 42 -12 42 -5 0 -10 -19 -12 -42 -3 -38 -6 -43 -29 -46 -21 -2 -31 4 -47 32
-12 21 -29 36 -40 36 -25 0 -50 -21 -54 -45 -2 -14 -12 -21 -36 -23 -32 -3
-32 -3 -32 42 0 58 -18 60 -22 4 -3 -42 -4 -43 -38 -43 -34 0 -35 1 -38 43 -3
42 -3 42 -43 42 -33 0 -41 -4 -51 -26 -17 -36 8 -80 43 -76 13 1 31 2 39 1 8
0 54 -1 102 -2 47 -1 90 -5 94 -9 10 -11 62 -10 68 0 3 5 64 8 135 6 87 -1
135 2 146 10 13 9 15 26 12 81 l-3 70 -2 -60z m-564 -42 c-2 -30 -7 -39 -25
-41 -17 -3 -24 3 -29 22 -7 31 10 56 38 56 16 0 19 -6 16 -37z m267 -14 c8
-26 -16 -54 -39 -46 -16 6 -22 48 -9 60 14 14 42 6 48 -14z"/>
<path d="M1547 1003 c-11 -11 -8 -153 3 -153 6 0 10 33 10 80 0 80 -1 86 -13
73z"/>
<path d="M1690 1000 c0 -5 5 -10 10 -10 6 0 10 5 10 10 0 6 -4 10 -10 10 -5 0
-10 -4 -10 -10z"/>
<path d="M1720 1000 c0 -5 5 -10 10 -10 6 0 10 5 10 10 0 6 -4 10 -10 10 -5 0
-10 -4 -10 -10z"/>
<path d="M2080 1000 c0 -5 5 -10 10 -10 6 0 10 5 10 10 0 6 -4 10 -10 10 -5 0
-10 -4 -10 -10z"/>
<path d="M72 948 c-7 -7 -12 -27 -12 -45 0 -26 6 -36 25 -45 19 -8 28 -9 37 0
6 6 18 8 27 3 25 -12 264 -13 256 -1 -3 5 -22 10 -41 10 -28 0 -34 4 -34 21 0
35 19 61 41 54 11 -4 19 -2 19 4 0 12 -39 14 -57 3 -6 -4 -13 -23 -15 -42 -3
-31 -6 -35 -33 -35 -28 0 -30 3 -33 43 -2 23 -7 42 -12 42 -5 0 -10 -19 -12
-42 -3 -42 -4 -43 -38 -43 -34 0 -35 1 -38 43 -3 40 -5 42 -36 42 -17 0 -37
-5 -44 -12z m56 -35 c-2 -30 -7 -38 -23 -38 -13 0 -21 8 -23 23 -5 34 5 52 28
52 18 0 21 -5 18 -37z"/>
<path d="M540 901 c0 -60 -8 -76 -45 -83 -17 -3 -17 -5 -4 -10 9 -3 27 -1 40
6 21 10 24 19 27 79 2 42 -1 67 -8 67 -6 0 -10 -25 -10 -59z"/>
<path d="M1678 935 c-17 -38 0 -79 35 -83 34 -4 35 -20 2 -28 -34 -8 -53 1
-65 31 -5 14 -12 25 -15 25 -10 0 -5 -36 8 -54 15 -21 80 -25 102 -6 18 15 20
111 3 128 -21 21 -57 14 -70 -13z m62 -31 c0 -31 -3 -35 -22 -32 -39 5 -37 68
2 68 16 0 20 -6 20 -36z"/>
<path d="M1806 944 c-19 -18 -21 -65 -4 -82 7 -7 23 -12 36 -12 33 0 23 -23
-14 -31 l-29 -7 31 -1 c42 -1 54 15 54 76 0 41 -4 54 -19 63 -27 14 -37 13
-55 -6z m52 -42 c3 -30 1 -33 -20 -30 -23 3 -34 27 -24 54 11 28 41 11 44 -24z"/>
<path d="M1930 949 c0 -6 7 -8 16 -5 24 9 44 -12 44 -45 0 -26 -3 -29 -34 -29
-19 0 -37 -4 -41 -9 -3 -6 79 -10 205 -10 l210 0 0 38 c0 44 -24 71 -63 71
-27 0 -67 -30 -67 -50 0 -5 -4 -10 -10 -10 -5 0 -10 9 -10 21 0 11 -4 17 -10
14 -5 -3 -10 -20 -10 -36 0 -27 -3 -30 -27 -27 -25 3 -28 7 -31 46 -2 23 -7
42 -12 42 -5 0 -10 -19 -12 -42 -3 -42 -4 -43 -40 -46 l-38 -3 0 39 c0 27 -5
42 -16 46 -25 10 -54 7 -54 -5z m368 -21 c7 -7 12 -22 12 -35 0 -21 -4 -23
-55 -23 -61 0 -68 10 -33 47 23 25 57 30 76 11z"/>
<path d="M262 693 c-6 -15 -13 -39 -15 -53 -2 -14 -2 -19 0 -12 6 18 53 15 53
-3 0 -8 4 -15 9 -15 10 0 -15 88 -29 103 -4 4 -12 -5 -18 -20z m28 -30 c0 -7
-7 -13 -15 -13 -16 0 -19 9 -9 35 5 13 8 14 15 3 5 -7 9 -19 9 -25z"/>
<path d="M693 665 c0 -33 2 -45 4 -27 2 18 2 45 0 60 -2 15 -4 0 -4 -33z"/>
<path d="M1013 665 c0 -33 2 -45 4 -27 2 18 2 45 0 60 -2 15 -4 0 -4 -33z"/>
<path d="M1107 713 c-4 -3 -7 -26 -7 -50 0 -47 19 -65 49 -46 24 15 27 74 5
90 -20 14 -37 17 -47 6z m42 -17 c18 -21 10 -70 -11 -74 -15 -3 -18 4 -18 42
0 47 9 57 29 32z"/>
<path d="M2031 663 c1 -32 4 -46 6 -31 3 18 12 28 26 31 l22 4 -22 2 c-13 0
-23 8 -23 16 0 9 10 20 23 25 21 8 21 9 -5 9 -28 1 -28 0 -27 -56z"/>
<path d="M2323 665 c0 -33 2 -45 4 -27 2 18 2 45 0 60 -2 15 -4 0 -4 -33z"/>
<path d="M1433 660 c0 -30 2 -43 4 -27 2 15 2 39 0 55 -2 15 -4 2 -4 -28z"/>
<path d="M734 678 c3 -13 6 -33 6 -45 0 -13 3 -23 8 -23 4 0 6 20 4 45 -2 25
-9 45 -14 45 -6 0 -8 -10 -4 -22z"/>
<path d="M1931 658 c-1 -27 3 -48 7 -48 4 0 6 17 4 38 -5 58 -10 62 -11 10z"/>
<path d="M342 648 c2 -17 10 -33 18 -35 12 -4 13 -3 1 5 -8 6 -12 20 -9 36 3
14 1 26 -4 26 -5 0 -8 -14 -6 -32z"/>
<path d="M378 630 c-1 -28 0 -50 5 -50 4 0 7 23 7 50 0 65 -7 65 -12 0z"/>
<path d="M422 651 c-1 -16 2 -32 8 -36 6 -4 10 8 10 29 0 43 -15 48 -18 7z"/>
<path d="M480 645 c0 -19 5 -35 10 -35 6 0 10 16 10 35 0 19 -4 35 -10 35 -5
0 -10 -16 -10 -35z"/>
<path d="M523 664 c-7 -19 7 -46 28 -52 12 -3 12 -2 0 6 -7 5 -13 21 -13 36 0
30 -6 33 -15 10z"/>
<path d="M560 670 c0 -5 5 -10 11 -10 5 0 7 5 4 10 -3 6 -8 10 -11 10 -2 0 -4
-4 -4 -10z"/>
<path d="M601 648 c-1 -30 3 -38 17 -38 11 0 13 3 5 8 -6 4 -13 21 -16 37 -4
27 -4 27 -6 -7z"/>
<path d="M640 645 c0 -19 4 -35 8 -35 5 0 9 16 10 35 1 19 -3 35 -8 35 -6 0
-10 -16 -10 -35z"/>
<path d="M791 648 c-1 -30 3 -38 17 -38 11 0 13 3 5 8 -6 4 -13 21 -16 37 -4
27 -4 27 -6 -7z"/>
<path d="M831 643 c0 -31 2 -34 9 -18 12 28 12 55 0 55 -5 0 -10 -17 -9 -37z"/>
<path d="M881 641 c1 -28 3 -30 6 -11 3 14 9 30 14 36 5 7 3 11 -6 11 -11 0
-15 -11 -14 -36z"/>
<path d="M930 669 c0 -5 5 -7 10 -4 6 3 10 8 10 11 0 2 -4 4 -10 4 -5 0 -10
-5 -10 -11z"/>
<path d="M973 645 c0 -22 2 -30 4 -17 2 12 2 30 0 40 -3 9 -5 -1 -4 -23z"/>
<path d="M1197 667 c-8 -21 8 -57 25 -57 7 0 7 4 0 13 -5 6 -12 23 -14 37 -3
21 -4 22 -11 7z"/>
<path d="M1271 679 c-2 -16 22 -68 29 -64 4 3 13 19 19 35 6 18 6 28 1 25 -6
-4 -10 -13 -10 -21 0 -21 -16 -17 -28 9 -6 12 -11 19 -11 16z"/>
<path d="M1348 667 c-9 -21 7 -57 25 -57 9 0 9 2 0 8 -6 4 -13 21 -15 37 -2
24 -4 26 -10 12z"/>
<path d="M1466 664 c-5 -13 8 -54 17 -54 2 0 1 16 -1 35 -5 39 -7 42 -16 19z"/>
<path d="M1509 648 c-3 -22 -1 -34 4 -29 5 5 7 21 5 37 -3 27 -4 26 -9 -8z"/>
<path d="M1550 628 c0 -28 2 -49 5 -47 9 9 13 99 4 99 -5 0 -9 -23 -9 -52z"/>
<path d="M1597 661 c3 -11 -1 -29 -8 -38 -12 -14 -12 -16 1 -11 18 6 26 46 11
61 -7 7 -8 3 -4 -12z"/>
<path d="M1643 645 c0 -22 2 -30 4 -17 2 12 2 30 0 40 -3 9 -5 -1 -4 -23z"/>
<path d="M1678 645 c2 -19 6 -35 8 -35 2 0 4 16 4 35 0 19 -4 35 -8 35 -4 0
-6 -16 -4 -35z"/>
<path d="M1718 645 c2 -19 6 -35 8 -35 2 0 4 16 4 35 0 19 -4 35 -8 35 -4 0
-6 -16 -4 -35z"/>
<path d="M1763 651 c1 -21 8 -36 17 -39 12 -4 13 -2 3 9 -6 8 -13 25 -16 39
-4 17 -5 15 -4 -9z"/>
<path d="M1843 645 c0 -22 2 -30 4 -17 2 12 2 30 0 40 -3 9 -5 -1 -4 -23z"/>
<path d="M1878 645 c2 -19 6 -35 8 -35 2 0 4 16 4 35 0 19 -4 35 -8 35 -4 0
-6 -16 -4 -35z"/>
<path d="M2102 648 c2 -17 8 -33 14 -35 6 -2 8 10 6 32 -5 44 -24 47 -20 3z"/>
<path d="M2148 650 c-3 -17 -1 -33 4 -36 4 -3 8 11 8 30 0 44 -6 47 -12 6z"/>
<path d="M2191 643 c1 -34 2 -35 9 -13 11 36 11 50 0 50 -5 0 -10 -17 -9 -37z"/>
<path d="M2238 645 c2 -19 6 -35 8 -35 2 0 4 16 4 35 0 19 -4 35 -8 35 -4 0
-6 -16 -4 -35z"/>
<path d="M2277 666 c-9 -23 4 -56 22 -56 13 0 13 2 2 9 -8 5 -12 19 -9 35 5
27 -6 36 -15 12z"/>
<path d="M937 643 c-10 -9 -9 -33 1 -33 4 0 8 9 8 20 0 23 0 22 -9 13z"/>
<path d="M2571 523 c-3 -38 94 -233 116 -233 3 0 0 7 -7 15 -6 8 -9 19 -6 24
4 5 -2 14 -11 20 -10 6 -15 11 -11 11 4 0 -6 28 -22 63 -17 34 -30 68 -30 75
0 7 -4 11 -9 7 -5 -3 -12 3 -14 12 -3 10 -5 12 -6 6z"/>
<path d="M610 500 l-285 -5 334 -7 c184 -5 637 -8 1008 -8 592 0 673 2 673 15
0 13 -86 15 -722 13 -398 -2 -851 -5 -1008 -8z"/>
<path d="M1130 358 c-3 -31 -1 -53 3 -49 5 5 7 30 5 57 l-3 49 -5 -57z"/>
<path d="M1173 355 c0 -33 2 -45 4 -27 2 18 2 45 0 60 -2 15 -4 0 -4 -33z"/>
<path d="M1660 358 c-3 -31 -1 -53 3 -49 5 5 7 30 5 57 l-3 49 -5 -57z"/>
<path d="M1703 355 c0 -33 2 -45 4 -27 2 18 2 45 0 60 -2 15 -4 0 -4 -33z"/>
<path d="M1904 389 c-19 -22 -19 -22 4 -10 12 6 22 16 22 21 0 15 -5 12 -26
-11z"/>
<path d="M1990 358 c-3 -31 -1 -53 3 -49 5 5 7 30 5 57 l-3 49 -5 -57z"/>
<path d="M2283 355 c0 -33 2 -45 4 -27 2 18 2 45 0 60 -2 15 -4 0 -4 -33z"/>
<path d="M2323 355 c0 -33 2 -45 4 -27 2 18 2 45 0 60 -2 15 -4 0 -4 -33z"/>
<path d="M506 354 c-6 -14 9 -54 20 -54 2 0 0 9 -6 19 -5 11 -7 27 -4 35 3 9
4 16 1 16 -3 0 -8 -7 -11 -16z"/>
<path d="M560 341 c0 -17 4 -32 8 -35 4 -2 6 11 4 30 -5 42 -12 45 -12 5z"/>
<path d="M629 338 c-3 -22 -1 -34 4 -29 5 5 7 21 5 37 -3 27 -4 26 -9 -8z"/>
<path d="M759 349 c-8 -17 -8 -24 3 -35 11 -11 13 -8 13 21 0 41 -1 42 -16 14z"/>
<path d="M810 346 c0 -14 -5 -37 -10 -53 -9 -26 -9 -27 5 -9 14 18 22 86 10
86 -3 0 -5 -11 -5 -24z"/>
<path d="M915 345 c0 -13 3 -21 8 -18 4 2 7 10 7 18 0 8 -3 16 -7 18 -5 3 -8
-5 -8 -18z"/>
<path d="M1024 335 c0 -18 3 -32 8 -29 10 6 11 64 1 64 -5 0 -8 -16 -9 -35z"/>
<path d="M1076 355 c4 -8 8 -15 10 -15 2 0 4 7 4 15 0 8 -4 15 -10 15 -5 0 -7
-7 -4 -15z"/>
<path d="M1244 355 c-3 -8 -4 -20 -2 -27 3 -7 7 -1 10 15 6 29 1 36 -8 12z"/>
<path d="M1296 340 c1 -44 14 -50 14 -7 0 21 -3 37 -7 37 -5 0 -8 -14 -7 -30z"/>
<path d="M1359 338 c-3 -21 -2 -38 2 -38 13 0 16 14 9 45 l-6 30 -5 -37z"/>
<path d="M1429 338 c-3 -22 -1 -34 4 -29 5 5 7 21 5 37 -3 27 -4 26 -9 -8z"/>
<path d="M1486 356 c3 -8 1 -31 -5 -52 -7 -27 -7 -34 1 -26 15 15 23 92 9 92
-6 0 -8 -6 -5 -14z"/>
<path d="M1540 364 c0 -6 7 -19 16 -30 14 -18 14 -18 3 6 -14 31 -19 36 -19
24z"/>
<path d="M1595 345 c0 -13 3 -21 8 -18 4 2 7 10 7 18 0 8 -3 16 -7 18 -5 3 -8
-5 -8 -18z"/>
<path d="M1766 354 c-6 -14 9 -54 20 -54 2 0 0 9 -6 19 -5 11 -7 27 -4 35 3 9
4 16 1 16 -3 0 -8 -7 -11 -16z"/>
<path d="M1820 341 c0 -17 4 -32 8 -35 4 -2 6 11 4 30 -5 42 -12 45 -12 5z"/>
<path d="M974 330 c-1 -16 3 -27 7 -24 11 6 12 54 2 54 -5 0 -8 -13 -9 -30z"/>
<path d="M1915 329 c0 -16 3 -29 8 -29 4 0 7 11 7 24 0 14 -3 27 -7 29 -5 3
-8 -8 -8 -24z"/>
<path d="M2175 349 c-4 -6 -5 -12 -2 -15 2 -3 7 2 10 11 7 17 1 20 -8 4z"/>
<path d="M2218 333 c5 -21 7 -23 10 -9 2 10 0 22 -6 28 -6 6 -7 0 -4 -19z"/>
<path d="M718 325 c-3 -14 -1 -25 3 -25 5 0 9 11 9 25 0 14 -2 25 -4 25 -2 0
-6 -11 -8 -25z"/>
<path d="M2102 339 c3 -8 1 -23 -5 -34 -9 -18 -9 -19 6 -6 20 16 22 37 6 47
-7 4 -10 1 -7 -7z"/>
<path d="M1077 323 c-4 -3 -7 -11 -7 -17 0 -6 5 -5 12 2 6 6 9 14 7 17 -3 3
-9 2 -12 -2z"/>
<path d="M880 310 c0 -5 5 -10 11 -10 5 0 7 5 4 10 -3 6 -8 10 -11 10 -2 0 -4
-4 -4 -10z"/>
<path d="M3505 193 c-17 -14 -25 -22 -18 -19 6 3 13 2 15 -3 1 -5 13 -2 25 8
11 10 18 23 15 28 -5 7 -18 2 -37 -14z"/>
</g>
</svg>
